<svg width="100" height="49" fill="none" xmlns="http://www.w3.org/2000/svg"><path d="M31.883 27.806v18.358h-8.401v-19.33c0-3.526-2.436-5.715-5.297-5.715-3.47 0-5.662 2.554-5.662 5.958v19.088h-8.4V14.372h8.218v3.708c1.339-2.188 4.383-4.498 8.523-4.498 9.07 0 11.019 7.477 11.019 14.224zm6.331-13.434h8.401v31.793h-8.4V14.372zM53.25 2.214h8.402v43.95H53.25V2.214zm28.917 11.368c9.862 0 15.463 6.565 15.463 16.96 0 .608 0 1.216-.06 1.824H75.166c.183 4.255 3.592 7.294 8.28 7.294 4.322 0 6.818-2.553 7.731-3.89l5.54 4.194c-1.217 2.25-5.479 6.991-13.393 6.991-10.227 0-16.741-7.051-16.741-16.595 0-9.605 6.514-16.778 15.584-16.778zm6.94 13.313c-.182-3.891-2.983-6.444-6.818-6.444-3.957 0-6.514 2.796-6.88 6.444h13.698zM42.354 1.91c2.8 0 4.93 2.066 4.93 4.801 0 2.736-2.13 4.803-4.93 4.803-2.74 0-4.87-2.067-4.87-4.803 0-2.735 2.13-4.802 4.87-4.802z" fill="#fff"/></svg>